<?xml version="1.0" encoding="utf-8"?>
<!-- Generator: Adobe Illustrator 27.0.1, SVG Export Plug-In . SVG Version: 6.00 Build 0)  -->
<svg version="1.1" id="Layer_1" xmlns="http://www.w3.org/2000/svg" xmlns:xlink="http://www.w3.org/1999/xlink" x="0px" y="0px"
	 viewBox="0 0 300 95" style="enable-background:new 0 0 300 95;" xml:space="preserve">
<style type="text/css">
	.st0{fill:#0D507C;}
</style>
<g>
	<path class="st0" d="M90.3,0.9c-7.9,1.4-15.4,3.3-23,6.1c-5.6,2-12.2,4.4-22.8,7.2C29.6,18.1,14,13.3,1.5,5.2v35.5L9.1,51v38.2
		c7.8,3.7,15.7,5.6,23.5,4.7V55.5l-9.9-4.2l0.2-33.6c3.9,0.8,8,1.2,12.4,1.1v32.9l8.4,1.9l0.2,37.1c8.4-0.3,16.2-2.4,23.2-6.5
		l-0.2-38.6l-10.3,0.4V14.2c4.8-1.5,8.5-2.9,12-4.1l1-0.3v32.5l8.7,0v38.4c7.8-2.3,15.7-1.9,23.5,2.3V43.8L90.3,37V0.9z"/>
	<path class="st0" d="M143.6,10.2h0.9l0,2.1c0,0.6,0,1.9,0,2.4c0,0.7,0.7,1.5,1.8,1.5c1.3,0,2-0.5,2.3-0.7c0.1,0,0.1-0.1,0.1-0.2
		l-0.1-0.2c0-0.1-0.1-0.1-0.1-0.1c-0.3,0.1-0.5,0.2-0.8,0.2c-0.4,0-0.9-0.3-0.9-1.6v-1.3c0-0.7,0-1.5,0-2.2h1.9
		c0.1,0,0.1-0.1,0.1-0.1l0.2-0.7c0-0.1,0-0.1-0.1-0.1h-2.1l0.1-1.7c0-0.1-0.1-0.2-0.2-0.2c-0.1,0-0.2,0-0.3,0.2
		c-0.6,0.7-2,1.9-2.5,2.1c-0.3,0.1-0.4,0.2-0.4,0.4S143.5,10.2,143.6,10.2z"/>
	<path class="st0" d="M158.1,10.2h0.9l0,2.1c0,0.6,0,1.9,0,2.4c0,0.7,0.7,1.5,1.8,1.5c1.3,0,2-0.5,2.3-0.7c0.1,0,0.1-0.1,0.1-0.2
		l-0.1-0.2c0-0.1-0.1-0.1-0.1-0.1c-0.3,0.1-0.5,0.2-0.8,0.2c-0.4,0-0.9-0.3-0.9-1.6v-1.3c0-0.7,0-1.5,0-2.2h1.9
		c0.1,0,0.1-0.1,0.1-0.1l0.2-0.7c0-0.1,0-0.1-0.1-0.1h-2.1l0.1-1.7c0-0.1-0.1-0.2-0.2-0.2c-0.1,0-0.2,0-0.3,0.2
		c-0.6,0.7-2,1.9-2.5,2.1c-0.3,0.1-0.4,0.2-0.4,0.4S158,10.2,158.1,10.2z"/>
	<path class="st0" d="M149.4,9.8c0.2,0,0.5,0.2,0.6,0.6c0,0.4,0,1,0,1.6l0,0.7c0,1.4-0.1,1.9,0.6,2.8c0.6,0.7,1.1,0.7,1.7,0.7
		c0.9,0,1.8-0.5,2.1-1.1h0.1l0.1,0.9c0,0.1,0.1,0.2,0.3,0.2c0.1,0,0.3,0,0.4-0.1l2.3-0.6c0.1,0,0.1,0,0.1-0.1l0-0.3
		c0-0.1-0.1-0.1-0.2-0.1c-0.2,0-0.4,0-0.5,0c-0.1,0-0.2-0.1-0.3-0.6c0-0.3,0-1.1,0-1.9v-1.2c0-1.6,0.1-2.1,0.1-2.2
		c0-0.1,0-0.2-0.1-0.2c0,0-0.1,0-0.2,0c-0.1,0-0.2,0-0.3,0h-2.4c-0.2,0-0.2,0-0.2,0.1v0.3c0,0.1,0.1,0.1,0.3,0.1
		c0.4,0,0.7,0.2,0.7,0.6l0,3.8c0,0.2-0.1,0.4-0.3,0.6c-0.2,0.3-0.6,0.5-0.9,0.5c-0.3,0-0.6,0-0.8-0.3c-0.4-0.6-0.3-1.9-0.3-2.5v-0.9
		c0-1.3,0-2,0.1-2.2c0-0.1-0.1-0.2-0.2-0.2c0,0-0.1,0-0.2,0c-0.1,0-0.1,0-0.2,0h-2.4c-0.1,0-0.2,0-0.2,0.1v0.3
		C149,9.8,149.1,9.7,149.4,9.8z"/>
	<path class="st0" d="M117.7,46.3c0.3,0,0.3-0.1,0.3-0.4v-0.7c0-0.1,0-0.3-0.4-0.3h-1.1c-1,0-1.3-0.8-1.3-1.5c0-1,1.6-5.5,1.9-6.1
		h7.1c0.4,1.2,1.7,5.3,1.9,6.5c0.2,0.8-0.1,1.2-1,1.2h-0.9c-0.2,0-0.2,0.1-0.2,0.3v0.6c0,0.2,0,0.4,0.4,0.4c0.6,0,1.8-0.1,4.5-0.1
		c4.2,0,4.8,0.1,5.5,0.1c0.3,0,0.3-0.2,0.3-0.4v-0.6c0-0.2,0-0.3-0.2-0.3h-1.1c-0.5,0-1.3-0.4-1.9-1.5c-0.5-0.9-2.6-6.9-3.3-9.4
		c-0.6-2.1-3.2-9.4-3.8-11.4c-0.1-0.4-0.2-0.6-0.4-0.6c-0.2,0-0.3,0.1-0.4,0.3c-0.5,0.6-2.6,1.4-3.6,1.6c-0.3,0.1-0.3,0.2-0.3,0.3
		c0,0.1,0.1,0.3,0.2,0.4c0.2,0.4,0.1,0.8,0,1.1c-0.3,0.9-2.9,7.9-3.2,8.5c-1.1,2.9-3.4,8.5-3.8,9.2c-0.6,1-1.4,1.4-2.2,1.4h-0.8
		c-0.2,0-0.2,0.1-0.2,0.3v0.6c0,0.2,0,0.4,0.2,0.4c0.5,0,1.2-0.1,3.5-0.1C115.9,46.2,117.2,46.3,117.7,46.3z M120.7,27.1
		c0.1-0.3,0.2-0.4,0.4-0.4c0.2,0,0.2,0.2,0.4,0.7c0.2,0.8,2.1,7.7,2.4,8.6h-6.4C117.7,35.2,120.5,27.5,120.7,27.1z"/>
	<path class="st0" d="M133.3,10.2h0.9l0,2.1c0,0.6,0,1.9,0,2.4c0,0.7,0.7,1.5,1.8,1.5c1.3,0,2-0.5,2.3-0.7c0.1,0,0.1-0.1,0.1-0.2
		l-0.1-0.2c0-0.1-0.1-0.1-0.1-0.1c-0.3,0.1-0.5,0.2-0.8,0.2c-0.4,0-0.9-0.3-0.9-1.6v-1.3c0-0.7,0-1.5,0-2.2h1.9
		c0.1,0,0.1-0.1,0.1-0.1l0.2-0.7c0-0.1,0-0.1-0.1-0.1h-2.1l0.1-1.7c0-0.1-0.1-0.2-0.2-0.2c-0.1,0-0.2,0-0.3,0.2
		c-0.6,0.7-2,1.9-2.5,2.1c-0.3,0.1-0.4,0.2-0.4,0.4S133.2,10.2,133.3,10.2z"/>
	<path class="st0" d="M138.9,16.1c0.2,0,0.8,0,1.8,0c1.4,0,2.2,0,2.3,0c0.1,0,0.1-0.1,0.1-0.2v-0.3c0-0.1,0-0.1-0.2-0.1h-0.6
		c-0.2,0-0.3-0.1-0.3-0.4c0-0.2,0-0.8,0-1.4v-1.7c0-1.4,0-2.5,0-2.7c0-0.1,0-0.2-0.2-0.2c-0.1,0-0.3,0-0.4,0.1L139,9.9
		c-0.1,0-0.2,0.1-0.2,0.1v0.2c0,0.1,0,0.2,0.2,0.2c0.7,0.2,0.8,0.6,0.8,1l0,2.3c0,0.5,0,1,0,1.4c0,0.3-0.1,0.3-0.3,0.3h-0.6
		c-0.1,0-0.2,0-0.2,0.1v0.3C138.7,16.1,138.8,16.1,138.9,16.1z"/>
	<path class="st0" d="M140.7,7.7c0.9,0,1.2-0.6,1.2-1.1c0-0.5-0.4-0.9-1.2-0.9c-0.7,0-1.2,0.5-1.2,1C139.6,7.3,140,7.7,140.7,7.7z"
		/>
	<path class="st0" d="M129.9,15.7c-0.7,0-1.1-0.4-1.4-0.8l-0.6-1c0-0.1-0.1-0.1-0.1-0.1l-0.3,0.1c-0.1,0-0.1,0-0.1,0.1l0.2,1.6
		c0,0.1,0,0.2,0.1,0.2c0.2,0.1,1,0.5,1.9,0.5c1.8,0,2.9-1,2.9-2.5c0-0.6-0.1-1-0.5-1.4c-0.5-0.5-0.9-0.6-1.7-0.8
		c-1.2-0.3-1.4-0.5-1.4-1.1c0-0.6,0.5-0.9,1-0.9c0.5,0,0.8,0.3,1,0.5l0.9,1c0.1,0.1,0.1,0.1,0.2,0l0.3-0.1c0.1,0,0.1-0.1,0.1-0.1
		l-0.2-1.2c0-0.1,0-0.2-0.3-0.3c-0.3-0.1-0.8-0.3-1.7-0.3c-0.7,0-1.1,0.1-1.8,0.6c-0.6,0.5-0.8,1.1-0.8,1.9c0,1.2,0.8,1.7,2,2.1
		c1.1,0.3,1.5,0.5,1.5,1.2C130.8,15.2,130.5,15.7,129.9,15.7z"/>
	<path class="st0" d="M159.6,29.1c0-0.3-0.1-0.5-0.4-0.5c-0.2,0-0.4,0.1-0.6,0.3c-1.2,1.4-3.9,3.8-5,4.3c-0.5,0.3-0.7,0.5-0.7,0.8
		c0,0.3,0.2,0.5,0.5,0.5h1.8l0,4.3c0,1.2-0.1,3.7-0.1,4.8c0,1.5,1.4,3,3.6,3c2.5,0,4-0.9,4.5-1.3c0.1-0.1,0.2-0.3,0.1-0.4l-0.2-0.5
		c-0.1-0.2-0.2-0.2-0.3-0.1c-0.5,0.3-1,0.4-1.7,0.4c-0.8,0-1.8-0.6-1.8-3.2v-2.6c0-1.5,0-3.1,0.1-4.4h3.8c0.2,0,0.3-0.1,0.3-0.3
		l0.3-1.4c0.1-0.1,0-0.3-0.2-0.3h-4.1L159.6,29.1z"/>
	<path class="st0" d="M111.5,5.2h0.8c0.3,0,0.5,0.2,0.5,0.6c0,0.2,0.1,3.1,0.1,3.5v1.1c0,0.9,0,4.4-0.1,4.6
		c-0.1,0.4-0.4,0.4-0.7,0.4h-0.5c-0.1,0-0.1,0-0.1,0.1V16c0,0.1,0,0.1,0.1,0.1c0.2,0,0.9,0,2.6,0c1.5,0,2.2,0,2.4,0
		c0.1,0,0.1,0,0.1-0.1v-0.5c0-0.1,0-0.1-0.1-0.1h-0.7c-0.3,0-0.6-0.1-0.6-0.6c0-0.1,0-3.9,0-4.1V9.5c0-0.2,0-3.8,0-3.9
		c0-0.3,0.2-0.4,0.6-0.4h0.5c0.1,0,0.1,0,0.1-0.1V4.6c0-0.1,0-0.1-0.1-0.1c-0.2,0-0.7,0-2.4,0c-1.6,0-2.4,0-2.6,0
		c-0.1,0-0.1,0-0.1,0.1v0.5C111.4,5.1,111.4,5.2,111.5,5.2z"/>
	<path class="st0" d="M118,10.5l0.1,0.1c0.4,0.2,0.6,0.5,0.6,0.9v3.6c0,0.3-0.3,0.3-0.5,0.3h-0.2c-0.1,0-0.2,0-0.2,0.1v0.3
		c0,0.1,0,0.1,0.1,0.1c0.1,0,0.6,0,1.8,0c1.1,0,1.5,0,1.6,0c0.1,0,0.1-0.1,0.1-0.1v-0.3c0-0.1,0-0.2-0.2-0.2h-0.2
		c-0.1,0-0.3-0.2-0.3-0.5l0-3.3c0-0.7,0.1-1.1,0.3-1.3c0.3-0.2,0.5-0.3,0.8-0.3c0.3,0,0.5,0,0.8,0.3c0.3,0.3,0.4,0.7,0.4,1.3v1.7
		c0,0.7,0,1.3-0.1,1.7c0,0.3-0.2,0.4-0.3,0.4h-0.2c-0.2,0-0.2,0-0.2,0.1v0.3c0,0.1,0,0.2,0.1,0.2c0.1,0,0.6,0,1.7,0
		c1.3,0,1.8,0,1.9,0c0.1,0,0.1-0.1,0.1-0.2v-0.3c0-0.1,0-0.1-0.2-0.1h-0.4c-0.1,0-0.4-0.1-0.4-0.6c0-0.6,0.1-1.3,0.1-1.9v-1.7
		c0-0.8,0-1.2-0.7-1.9c-0.4-0.4-1-0.5-1.7-0.5c-0.5,0-0.9,0.1-1.3,0.3c-0.3,0.2-0.6,0.4-0.8,0.6h-0.1l-0.2-0.7
		c0-0.1-0.1-0.2-0.2-0.2c-0.1,0-0.2,0.1-0.4,0.1L118,10c-0.1,0-0.1,0.1-0.1,0.2v0.1C117.8,10.4,117.9,10.5,118,10.5z"/>
	<path class="st0" d="M216.2,16.1c0.2,0,0.8,0,1.8,0c1.4,0,2.2,0,2.3,0c0.1,0,0.1-0.1,0.1-0.2v-0.3c0-0.1,0-0.1-0.2-0.1h-0.6
		c-0.2,0-0.3-0.1-0.3-0.4c0-0.2,0-0.8,0-1.4v-1.7c0-1.4,0-2.5,0-2.7c0-0.1,0-0.2-0.2-0.2c-0.1,0-0.3,0-0.4,0.1l-2.4,0.8
		c-0.1,0-0.2,0.1-0.2,0.1v0.2c0,0.1,0,0.2,0.2,0.2c0.7,0.2,0.8,0.6,0.8,1l0,2.3c0,0.5,0,1,0,1.4c0,0.3-0.1,0.3-0.3,0.3h-0.6
		c-0.1,0-0.2,0-0.2,0.1v0.3C216.1,16.1,216.1,16.1,216.2,16.1z"/>
	<path class="st0" d="M209.9,16.1c0.1,0,0.8,0,2,0c1.5,0,2.2,0,2.3,0c0.1,0,0.1-0.1,0.1-0.1v-0.3c0-0.1,0-0.1-0.1-0.1h-0.7
		c-0.3,0-0.5-0.2-0.5-0.7v-3.1c0-0.2,0.1-0.5,0.3-1c0.1-0.2,0.3-0.3,0.4-0.3c0.1,0,0.3,0,0.4,0.1c0.1,0.1,0.4,0.1,0.6,0.1
		c0.5,0,1-0.5,1-0.9c0-0.6-0.4-0.9-0.9-0.9c-0.7,0-1.4,0.5-1.9,1.6h-0.1l-0.1-1.3c0-0.1-0.1-0.2-0.2-0.2c-0.1,0-0.2,0-0.3,0.1
		l-2.3,1c-0.1,0-0.1,0.1-0.1,0.1v0.1c0,0.1,0,0.1,0.1,0.1l0.3,0.2c0.5,0.3,0.6,0.6,0.6,1.3v1.3c0,0.8,0,1.4,0,1.8
		c0,0.3-0.2,0.4-0.4,0.4h-0.5c-0.1,0-0.2,0-0.2,0.1v0.3C209.8,16.1,209.8,16.1,209.9,16.1z"/>
	<path class="st0" d="M167.5,16.3c1.1,0,2-0.3,2.8-1.1c0.6-0.7,1-1.6,1-2.5c0-1-0.3-1.9-1.1-2.6c-0.7-0.7-1.5-1-2.6-1
		c-0.8,0-1.6,0.2-2.4,0.8c-1,0.8-1.4,2-1.4,2.7c0,1,0.2,1.9,0.9,2.6C165.5,16,166.3,16.3,167.5,16.3z M166.6,10.1
		c0.2-0.3,0.5-0.4,0.9-0.4c0.7,0,1.4,0.9,1.4,2.8c0,1.8-0.4,3.1-1.3,3.1c-0.6,0-0.9-0.3-1.1-0.7c-0.3-0.7-0.4-1.3-0.4-2.3
		C166.1,11.3,166.3,10.6,166.6,10.1z"/>
	<path class="st0" d="M227.5,10c-0.7-0.7-1.5-1-2.6-1c-0.8,0-1.6,0.2-2.4,0.8c-1,0.8-1.4,2-1.4,2.7c0,1,0.2,1.9,0.9,2.6
		c0.8,0.9,1.6,1.2,2.8,1.2c1.1,0,2-0.3,2.8-1.1c0.6-0.7,1-1.6,1-2.5C228.6,11.6,228.3,10.7,227.5,10z M224.8,15.6
		c-0.6,0-0.9-0.3-1.1-0.7c-0.3-0.7-0.4-1.3-0.4-2.3c0-1.3,0.2-2,0.5-2.5c0.2-0.3,0.5-0.4,0.9-0.4c0.7,0,1.4,0.9,1.4,2.8
		C226.1,14.3,225.7,15.6,224.8,15.6z"/>
	<path class="st0" d="M229.4,16.1c0.1,0,0.8,0,2,0c1.5,0,2.2,0,2.3,0c0.1,0,0.1-0.1,0.1-0.1v-0.3c0-0.1,0-0.1-0.1-0.1H233
		c-0.3,0-0.5-0.2-0.5-0.7v-3.1c0-0.2,0.1-0.5,0.3-1c0.1-0.2,0.3-0.3,0.4-0.3c0.1,0,0.3,0,0.4,0.1c0.1,0.1,0.4,0.1,0.6,0.1
		c0.5,0,1-0.5,1-0.9c0-0.6-0.4-0.9-0.9-0.9c-0.7,0-1.4,0.5-1.9,1.6h-0.1l-0.1-1.3c0-0.1-0.1-0.2-0.2-0.2c-0.1,0-0.2,0-0.3,0.1
		l-2.3,1c-0.1,0-0.1,0.1-0.1,0.1v0.1c0,0.1,0,0.1,0.1,0.1l0.3,0.2c0.5,0.3,0.6,0.6,0.6,1.3v1.3c0,0.8,0,1.4,0,1.8
		c0,0.3-0.2,0.4-0.4,0.4h-0.5c-0.1,0-0.2,0-0.2,0.1v0.3C229.3,16.1,229.3,16.1,229.4,16.1z"/>
	<path class="st0" d="M218,7.7c0.9,0,1.2-0.6,1.2-1.1c0-0.5-0.4-0.9-1.2-0.9c-0.7,0-1.2,0.5-1.2,1C216.9,7.3,217.4,7.7,218,7.7z"/>
	<path class="st0" d="M206.3,16.3c1.5,0,2.6-1.1,2.9-1.7c0.1-0.3,0.1-0.4,0-0.4l-0.3-0.1c-0.1,0-0.1,0-0.2,0c-0.3,0.5-1,0.9-1.8,0.9
		c-1.2,0-2.1-0.8-2.1-2.5V12h3.7c0.4,0,0.5,0,0.5-0.2c0-0.3-0.1-2.8-2.8-2.8c-1.3,0-2.2,0.5-2.8,1.3c-0.7,1.1-0.7,1.9-0.7,2.4
		c0,1.3,0.3,1.9,1.1,2.8C204.4,16.1,205.3,16.3,206.3,16.3z M206.1,9.6c0.5,0,0.8,0.7,0.8,1.4c0,0.2-0.2,0.3-0.5,0.3h-1.6
		C205,10.2,205.4,9.6,206.1,9.6z"/>
	<path class="st0" d="M177.5,34.1c-1.5-1.4-3-2-5.2-2c-1.5,0-3.2,0.4-4.8,1.7c-2,1.5-2.8,3.9-2.8,5.4c0,2,0.5,3.8,1.7,5.1
		c1.7,1.9,3.3,2.4,5.7,2.4c2.2,0,4.1-0.7,5.7-2.3c1.3-1.4,2.1-3.2,2.1-5.1C179.7,37.3,179.1,35.5,177.5,34.1z M172.2,45.3
		c-1.2,0-1.7-0.5-2.1-1.4c-0.6-1.4-0.8-2.6-0.8-4.5c0-2.6,0.4-4,1.1-5c0.4-0.6,0.9-0.9,1.8-0.9c1.4,0,2.7,1.9,2.7,5.6
		C174.8,42.6,174,45.3,172.2,45.3z"/>
	<path class="st0" d="M198.5,45.3c0-0.2-0.1-0.3-0.4-0.3h-0.9c-0.3,0-0.8-0.2-0.8-1.1c0.1-1.1,0.1-2.7,0.1-3.8v-3.4
		c0-1.6-0.1-2.4-1.5-3.7c-0.8-0.8-2.1-0.9-3.3-0.9c-1.1,0-1.8,0.2-2.5,0.6c-0.6,0.3-1.2,0.7-1.6,1.2h-0.3l-0.4-1.4
		c-0.1-0.2-0.3-0.4-0.5-0.4c-0.3,0-0.5,0.1-0.7,0.2l-4.2,1.9c-0.2,0.1-0.3,0.2-0.3,0.3v0.3c0,0.1,0,0.3,0.2,0.4l0.3,0.1
		c0.7,0.4,1.3,0.9,1.3,1.9v7.2c0,0.6-0.6,0.6-0.9,0.6H182c-0.3,0-0.3,0.1-0.3,0.3V46c0,0.2,0.1,0.3,0.2,0.3c0.2,0,1.2-0.1,3.5-0.1
		c2.1,0,3,0.1,3.2,0.1c0.2,0,0.2-0.1,0.2-0.3v-0.6c0-0.2-0.1-0.3-0.3-0.3h-0.4c-0.3,0-0.5-0.5-0.5-1.1l0.1-6.7
		c0-1.3,0.3-2.2,0.6-2.5c0.6-0.5,1.1-0.6,1.7-0.6c0.6,0,1,0.1,1.6,0.6c0.7,0.6,0.8,1.5,0.8,2.7v3.5c0,1.5-0.1,2.5-0.2,3.4
		c-0.1,0.6-0.4,0.7-0.6,0.7h-0.4c-0.3,0-0.4,0.1-0.4,0.3v0.6c0,0.3,0.1,0.4,0.3,0.4c0.2,0,1.3-0.1,3.4-0.1c2.6,0,3.6,0.1,3.8,0.1
		c0.2,0,0.3-0.1,0.3-0.4V45.3z"/>
	<path class="st0" d="M152.1,45.9v-0.6c0-0.2-0.1-0.3-0.4-0.3h-0.9c-0.3,0-0.8-0.2-0.8-1.1c0.1-1.1,0.1-2.7,0.1-3.8v-3.4
		c0-1.6-0.1-2.4-1.5-3.7c-0.8-0.8-2.1-0.9-3.3-0.9c-1.1,0-1.8,0.2-2.5,0.6c-0.6,0.3-1.2,0.7-1.6,1.2h-0.3l-0.4-1.4
		c-0.1-0.2-0.3-0.4-0.5-0.4c-0.3,0-0.5,0.1-0.7,0.2l-4.2,1.9c-0.2,0.1-0.3,0.2-0.3,0.3v0.3c0,0.1,0,0.3,0.2,0.4l0.3,0.1
		c0.7,0.4,1.3,0.9,1.3,1.9v7.2c0,0.6-0.6,0.6-0.9,0.6h-0.5c-0.3,0-0.3,0.1-0.3,0.3V46c0,0.2,0.1,0.3,0.2,0.3c0.2,0,1.2-0.1,3.5-0.1
		c2.1,0,3,0.1,3.2,0.1c0.2,0,0.2-0.1,0.2-0.3v-0.6c0-0.2-0.1-0.3-0.3-0.3h-0.4c-0.3,0-0.5-0.5-0.5-1.1l0.1-6.7
		c0-1.3,0.3-2.2,0.6-2.5c0.6-0.5,1.1-0.6,1.7-0.6c0.6,0,1,0.1,1.6,0.6c0.7,0.6,0.8,1.5,0.8,2.7v3.5c0,1.5-0.1,2.5-0.2,3.4
		c-0.1,0.6-0.4,0.7-0.6,0.7h-0.4c-0.3,0-0.4,0.1-0.4,0.3v0.6c0,0.3,0.1,0.4,0.3,0.4c0.2,0,1.3-0.1,3.4-0.1c2.6,0,3.6,0.1,3.8,0.1
		C152,46.3,152.1,46.1,152.1,45.9z"/>
	<path class="st0" d="M185.2,9.8c0.2,0,0.5,0.2,0.6,0.6c0,0.4,0,1,0,1.6l0,0.7c0,1.4-0.1,1.9,0.6,2.8c0.6,0.7,1.1,0.7,1.7,0.7
		c0.9,0,1.8-0.5,2.1-1.1h0.1l0.1,0.9c0,0.1,0.1,0.2,0.3,0.2c0.1,0,0.3,0,0.4-0.1l2.3-0.6c0.1,0,0.1,0,0.1-0.1l0-0.3
		c0-0.1-0.1-0.1-0.2-0.1c-0.2,0-0.4,0-0.5,0c-0.1,0-0.2-0.1-0.3-0.6c0-0.3,0-1.1,0-1.9v-1.2c0-1.6,0.1-2.1,0.1-2.2
		c0-0.1,0-0.2-0.1-0.2c0,0-0.1,0-0.2,0c-0.1,0-0.2,0-0.3,0h-2.4c-0.2,0-0.2,0-0.2,0.1v0.3c0,0.1,0.1,0.1,0.3,0.1
		c0.4,0,0.7,0.2,0.7,0.6l0,3.8c0,0.2-0.1,0.4-0.3,0.6c-0.2,0.3-0.6,0.5-0.9,0.5c-0.3,0-0.6,0-0.8-0.3c-0.4-0.6-0.3-1.9-0.3-2.5v-0.9
		c0-1.3,0-2,0.1-2.2c0-0.1-0.1-0.2-0.2-0.2c0,0-0.1,0-0.2,0c-0.1,0-0.1,0-0.2,0H185c-0.1,0-0.2,0-0.2,0.1v0.3
		C184.8,9.8,184.9,9.7,185.2,9.8z"/>
	<path class="st0" d="M193.8,10.5l0.4,0.2c0.5,0.3,0.5,0.5,0.5,1.1l0,6c0,0.9,0,1.4,0,1.8c0,0.3-0.1,0.4-0.4,0.4h-0.4
		c-0.2,0-0.2,0-0.2,0.1v0.3c0,0.1,0,0.2,0.1,0.2c0.1,0,0.7,0,1.9,0c1.4,0,2,0,2.1,0c0.1,0,0.1,0,0.1-0.1v-0.3c0-0.1,0-0.2-0.1-0.2
		h-0.4c-0.4,0-0.6-0.1-0.6-1.4l0-2.5c0.4,0.2,0.9,0.3,1.2,0.3c2.1,0,3.7-1.7,3.7-4.2c0-0.9-0.2-1.5-0.9-2.3c-0.5-0.6-1.1-0.8-2-0.8
		c-0.8,0-1.7,0.4-2.1,0.9h-0.1l-0.1-0.6c0-0.2-0.1-0.3-0.2-0.3c-0.1,0-0.3,0.1-0.5,0.2l-2.1,0.8c-0.1,0-0.1,0.1-0.1,0.1v0.2
		C193.7,10.4,193.7,10.4,193.8,10.5z M196.8,10.6c0.3-0.3,0.7-0.4,1-0.4c1.6,0,1.7,2.3,1.7,3.4c0,1.6-0.6,2.2-1.3,2.2
		c-0.4,0-0.7-0.2-1-0.4c-0.3-0.3-0.4-0.7-0.4-0.9V10.6z"/>
	<path class="st0" d="M183.6,12.7c0-1.1-0.3-1.9-0.9-2.4c-0.7-0.6-1.3-1-2.1-1.2c-0.8-0.2-1.7-0.6-2.1-1.1C178,7.6,178,7.1,178,6.5
		c0-0.4,0.5-1.5,1.7-1.5c0.7,0,1.2,0.2,1.6,0.7c0.6,0.6,0.8,1.2,1,1.7c0,0.1,0.1,0.1,0.2,0.1l0.4-0.1c0,0,0.1,0,0.1-0.1l-0.3-2.8
		c0-0.1,0-0.3-0.2-0.3c-0.1,0-0.2,0-0.2,0.1l-0.2,0.2c-0.1,0.1-0.2,0.1-0.4,0.1c-0.3-0.1-1-0.3-2.2-0.3c-1,0-1.6,0.2-2.3,0.8
		c-1,0.7-1.2,1.4-1.2,2.4c0,0.9,0.2,1.8,0.8,2.3c0.8,0.7,1.9,1.2,2.4,1.4c2.1,0.8,2.4,1.2,2.4,2.5c0,1.3-1.3,1.8-2,1.8
		c-0.8,0-1.6-0.4-2-1.1c-0.4-0.6-0.6-1.3-0.6-1.8c0-0.1,0-0.1-0.1-0.1l-0.4,0c-0.1,0-0.1,0-0.1,0.1l-0.3,3.1c0,0.2,0,0.3,0.2,0.3
		c0.1,0,0.2,0,0.3-0.2c0.1-0.2,0.2-0.3,0.3-0.3c0.1,0,0.2,0,0.4,0.2c0.7,0.5,1.4,0.7,2.9,0.7C182.1,16.3,183.6,14.7,183.6,12.7z"/>
	<path class="st0" d="M227.1,65.9H223l0.1-3.4c0-0.3-0.1-0.5-0.4-0.5c-0.2,0-0.4,0.1-0.6,0.3c-1.2,1.4-3.9,3.8-5,4.3
		c-0.5,0.3-0.7,0.5-0.7,0.8c0,0.3,0.2,0.5,0.5,0.5h1.8l0,4.3c0,1.2-0.1,3.7-0.1,4.8c0,1.5,1.4,3,3.6,3c2.5,0,4-0.9,4.5-1.3
		c0.1-0.1,0.2-0.3,0.1-0.4l-0.2-0.5c-0.1-0.2-0.2-0.2-0.3-0.1c-0.5,0.3-1,0.4-1.7,0.4c-0.8,0-1.8-0.6-1.8-3.2v-2.6
		c0-1.5,0-3.1,0.1-4.4h3.8c0.2,0,0.3-0.1,0.3-0.3l0.3-1.4C227.4,66.1,227.3,65.9,227.1,65.9z"/>
	<path class="st0" d="M241,67.5c-1.5-1.4-3-2-5.2-2c-1.5,0-3.2,0.4-4.8,1.7c-2,1.5-2.8,3.9-2.8,5.4c0,2,0.5,3.8,1.7,5.1
		c1.7,1.9,3.3,2.4,5.7,2.4c2.2,0,4.1-0.7,5.7-2.3c1.3-1.4,2.1-3.2,2.1-5.1C243.2,70.7,242.6,68.9,241,67.5z M235.7,78.6
		c-1.2,0-1.7-0.5-2.1-1.4c-0.6-1.4-0.8-2.6-0.8-4.5c0-2.6,0.4-4,1.1-5c0.4-0.6,0.9-0.9,1.8-0.9c1.4,0,2.7,1.9,2.7,5.6
		C238.3,76,237.5,78.6,235.7,78.6z"/>
	<path class="st0" d="M273.7,77.3l-0.5-0.3c-0.1-0.1-0.2,0-0.3,0.2c-0.1,0.2-0.5,0.6-0.9,0.6c-0.6,0-0.7-0.5-0.7-2.2l-0.1-6.5
		c0-1.2-0.2-2.1-0.9-2.8c-0.7-0.6-1.2-0.9-3.3-0.9c-2.6,0-4.9,1.2-6.2,2.4c-0.7,0.6-0.9,1.6-0.9,2.3c0,0.7,0.6,1.2,1.4,1.2
		c1.3,0,2.1-0.7,2.1-1.9c0-1-0.4-1.6,0.1-1.9c0.6-0.4,1.1-0.5,1.7-0.5c0.5,0,1,0.1,1.4,0.4c0.4,0.4,0.5,1.1,0.5,1.8v1.7
		c-0.8,0.6-1.7,0.9-4.2,2.1c-2.1,1-2.8,2.5-2.8,4c0,1.8,1,3,2.1,3c0.9,0,1.7-0.1,2.3-0.3c1.3-0.5,2-0.9,2.8-1.7h0.2
		c0.6,1.5,1.8,2,3.1,2c2,0,3-1.5,3.3-2.2C273.9,77.5,273.8,77.4,273.7,77.3z M267,76.8c0,0.3-0.7,1.1-1.5,1.2
		c-0.7,0-1.4-0.6-1.4-2.1c0-2.2,1.3-2.7,2.9-3.6V76.8z"/>
	<path class="st0" d="M215.2,78.4h-0.9c-0.3,0-0.8-0.2-0.8-1.1c0.1-1.1,0.1-2.7,0.1-3.8v-3.4c0-1.6-0.1-2.4-1.5-3.7
		c-0.8-0.8-2.1-0.9-3.3-0.9c-1.1,0-1.8,0.2-2.5,0.6c-0.6,0.3-1.2,0.7-1.6,1.2h-0.3l-0.4-1.4c-0.1-0.2-0.3-0.4-0.5-0.4
		c-0.3,0-0.5,0.1-0.7,0.2l-4.2,1.9c-0.2,0.1-0.3,0.2-0.3,0.3v0.3c0,0.1,0,0.3,0.2,0.4l0.3,0.1c0.7,0.4,1.3,0.9,1.3,1.9v7.2
		c0,0.6-0.6,0.7-0.9,0.7H199c-0.3,0-0.3,0.1-0.3,0.3v0.6c0,0.2,0.1,0.3,0.2,0.3c0.2,0,1.2-0.1,3.5-0.1c2.1,0,3,0.1,3.2,0.1
		c0.2,0,0.2-0.1,0.2-0.3v-0.6c0-0.2-0.1-0.3-0.3-0.3h-0.4c-0.3,0-0.5-0.5-0.5-1.1l0.1-6.7c0-1.3,0.3-2.2,0.6-2.5
		c0.6-0.5,1.1-0.6,1.7-0.6c0.6,0,1,0.1,1.6,0.6c0.7,0.6,0.8,1.5,0.8,2.7v3.5c0,1.5-0.1,2.5-0.2,3.4c-0.1,0.6-0.4,0.7-0.6,0.7h-0.4
		c-0.3,0-0.4,0.1-0.4,0.3v0.6c0,0.3,0.1,0.4,0.3,0.4c0.2,0,1.3-0.1,3.4-0.1c2.6,0,3.6,0.1,3.8,0.1c0.2,0,0.3-0.1,0.3-0.4v-0.6
		C215.6,78.5,215.5,78.4,215.2,78.4z"/>
	<path class="st0" d="M259.4,65.8c-0.4,0-1.1,0.1-2.5,0.1c-1.8,0-2.5-0.1-2.9-0.1c-0.2,0-0.2,0.1-0.2,0.3v0.7c0,0.2,0,0.3,0.2,0.3
		h0.5c0.6,0,1.1,0.4,0.8,1.3c-0.2,0.6-1.9,5.1-2.8,7h-0.2c-0.2-0.7-2-7-2.1-7.5c-0.1-0.5,0.2-0.7,0.6-0.7h0.5c0.2,0,0.2-0.1,0.2-0.3
		v-0.7c0-0.2,0-0.3-0.3-0.3c-0.4,0-1.4,0.1-3.3,0.1c-2.8,0-3.6-0.1-3.9-0.1c-0.2,0-0.3,0.1-0.3,0.2v0.7c0,0.2,0,0.3,0.3,0.3h0.5
		c0.5,0,0.8,0.6,1.1,1.4c0.2,0.5,4.3,10.7,4.5,11.8c-0.4,1.1-2.1,4.7-2.4,4.9c-0.3,0.2-0.6,0.1-1-0.1c-0.5-0.3-0.9-0.4-1.4-0.4
		c-0.8,0-1.6,0.8-1.6,1.9c0,1.2,0.9,1.9,2,1.9c1.8,0,2.5-1.3,3.1-2.1c0.6-1,2-4.1,3.7-7.6c2.5-5.3,4.7-10.2,5.3-10.9
		c0.4-0.5,0.8-0.6,1.2-0.6h0.4c0.2,0,0.2-0.1,0.2-0.3v-0.6C259.6,65.9,259.6,65.8,259.4,65.8z"/>
	<path class="st0" d="M194.5,67.5c-1.5-1.4-3-2-5.2-2c-1.5,0-3.2,0.4-4.8,1.7c-2,1.5-2.8,3.9-2.8,5.4c0,2,0.5,3.8,1.7,5.1
		c1.7,1.9,3.3,2.4,5.7,2.4c2.2,0,4.1-0.7,5.7-2.3c1.3-1.4,2.1-3.2,2.1-5.1C196.8,70.7,196.1,68.9,194.5,67.5z M189.2,78.6
		c-1.2,0-1.7-0.5-2.1-1.4c-0.6-1.4-0.8-2.6-0.8-4.5c0-2.6,0.4-4,1.1-5c0.4-0.6,0.9-0.9,1.8-0.9c1.4,0,2.7,1.9,2.7,5.6
		C191.8,76,191,78.6,189.2,78.6z"/>
	<path class="st0" d="M179.3,78.3h-1.6c-0.5,0-0.7-0.5-0.7-1.8c0-0.6-0.1-7.7-0.1-8.3c0-0.7-0.1-8.7-0.1-9.2c0-0.7,0.1-1.3,0.8-1.3
		h1.4c0.2,0,0.3-0.1,0.3-0.3v-0.7c0-0.2,0-0.3-0.2-0.3c-0.4,0-1.5,0.1-6.5,0.1c-1,0-1.4,0-1.5,0.4c-0.2,0.6-3.4,8.4-3.5,8.7
		c-0.2,0.5-2.7,6.5-3,7.1c-1.8-4.9-4.2-10.3-6.2-15.8c-0.2-0.5-0.5-0.6-0.8-0.6c-0.4,0-1.4,0.1-2.9,0.1c-3.8,0-4.7-0.1-5-0.1
		c-0.2,0-0.2,0.1-0.2,0.2v0.9c0,0.1,0,0.2,0.2,0.2h1.1c1.5,0,1.8,1,1.8,2.5l0,5c0,0.6-0.3,8.2-0.6,10.6c-0.1,1-0.5,2.5-1.6,2.5H149
		c-0.2,0-0.2,0.1-0.2,0.2v0.8c0,0.3,0,0.3,0.3,0.3c0.3,0,1.4-0.1,4.2-0.1c2.4,0,3.2,0.1,3.6,0.1c0.3,0,0.3-0.1,0.3-0.2v-0.9
		c0-0.1,0-0.2-0.2-0.2h-1.3c-1.1,0-1.6-1.8-1.7-3c-0.2-2.9-0.2-7.3-0.2-7.7c0-0.4,0.1-8.6,0.2-9.1c0.3,0.4,3.2,7.7,3.8,9.2
		c0.2,0.6,4.5,10.7,4.6,10.9c0.2,0.4,0.4,0.6,0.6,0.6c0.4,0,0.6-0.5,0.8-0.7c0.2-0.3,3.1-7.5,3.7-9c0.6-1.3,4.2-10.2,4.5-10.7h0.2
		v9.9c0,2.3-0.1,8.2-0.1,8.6c-0.1,0.9-0.4,1.1-0.9,1.1h-1.8c-0.2,0-0.3,0.1-0.3,0.2v0.8c0,0.2,0,0.3,0.3,0.3c0.4,0,1.7-0.1,5-0.1
		c3.8,0,4.4,0.1,4.8,0.1c0.3,0,0.3-0.1,0.3-0.3v-0.8C179.5,78.4,179.5,78.3,179.3,78.3z"/>
	<path class="st0" d="M141.4,75.1l-0.6-0.3c-0.1-0.1-0.3-0.1-0.3,0.1c-0.6,1-1.9,1.8-3.5,1.8c-2.4,0-4.3-1.7-4.3-5v-0.9h7.4
		c0.7,0,1,0,1-0.5c0-0.5-0.3-5.6-5.6-5.6c-2.5,0-4.5,0.9-5.7,2.7c-1.5,2.1-1.5,3.9-1.5,4.8c0,2.5,0.6,3.8,2.2,5.6
		c1.1,1.2,2.8,1.5,4.9,1.5c3.1,0,5.2-2.2,5.7-3.4C141.7,75.3,141.6,75.2,141.4,75.1z M135.3,66.1c1,0,1.6,1.4,1.6,2.8
		c0,0.5-0.3,0.6-1,0.6h-3.1C133,67.3,133.8,66.1,135.3,66.1z"/>
	<path class="st0" d="M127.3,77.2c0-0.2-0.2-0.3-0.5-0.2c-0.8,0.1-1.2,0.1-1.5-0.4c-0.3-0.5-0.3-1.8-0.3-3v-7.2
		c0-4.6,0.1-9.3,0.2-10.9c0-0.4-0.1-0.6-0.3-0.6c-0.3,0-0.4,0.1-0.8,0.2c-1.1,0.2-3.6,0.4-5.5,0.6c-0.2,0-0.3,0.1-0.3,0.3v0.6
		c0,0.1,0,0.2,0.2,0.2c1.7,0.4,2.1,0.9,2.1,1.9l0.1,6.6c-0.6-0.3-1.6-0.5-2.6-0.5c-2,0-3.5,0.7-4.8,2.1c-1.8,2-2.3,3.7-2.3,6.3
		c0,2.1,0.8,3.5,2,4.6c1.5,1.4,2.2,1.6,3.9,1.6c1.4,0,3.3-0.8,4.4-2l0.5,1.6c0.1,0.3,0.3,0.4,0.5,0.3l4.9-1.2
		c0.2-0.1,0.3-0.2,0.2-0.4L127.3,77.2z M120.5,76.5c-0.3,0.3-0.7,0.6-1.6,0.6c-2,0-3.7-2.7-3.7-6.5c0-1.6,0.3-2.7,1-3.7
		c0.5-0.7,1.1-0.9,1.7-0.9c0.9,0,2,0.6,2.5,1.5c0.2,0.4,0.3,1,0.3,1.6l0.1,5.9C120.8,75.7,120.7,76.3,120.5,76.5z"/>
	<path class="st0" d="M278.3,29.5c1.8,0,2.5-1.2,2.5-2.2c0-0.9-0.8-1.9-2.3-1.9c-1.4,0-2.4,0.9-2.4,2C276,28.7,277,29.5,278.3,29.5z
		"/>
	<path class="st0" d="M263,46.6c1.8,0,3.6-1,4.3-2.1h0.2l0.2,1.8c0,0.2,0.2,0.4,0.6,0.4c0.3,0,0.5-0.1,0.7-0.1l4.5-1.1h0
		c0.1,0,0.2-0.1,0.2-0.3l-0.1-0.6c0-0.1-0.1-0.2-0.4-0.1c-0.4,0.1-0.9,0.1-1.1,0.1c-0.1,0-0.5-0.1-0.6-1.1c-0.1-0.6-0.1-2.2-0.1-3.7
		v-2.4c0-3.3,0.2-4.1,0.2-4.4c0-0.2-0.1-0.3-0.3-0.3c-0.1,0-0.2,0-0.4,0c-0.2,0-0.3,0.1-0.6,0.1h-4.8c-0.3,0-0.4,0-0.4,0.3v0.6
		c0,0.2,0.2,0.2,0.6,0.2c0.8,0.1,1.4,0.3,1.4,1.1l0,7.6c0,0.3-0.2,0.8-0.5,1.2c-0.5,0.6-1.2,1-1.8,1c-0.6,0-1.1,0.1-1.6-0.7
		c-0.8-1.3-0.6-3.7-0.6-5v-1.8c0-2.6,0.1-4.1,0.1-4.4c0-0.2-0.1-0.4-0.4-0.4c-0.1,0-0.2,0-0.4,0c-0.1,0-0.3,0.1-0.5,0.1h-4.7
		c-0.3,0-0.4,0.1-0.4,0.3v0.6c0,0.2,0.2,0.1,0.7,0.2c0.4,0.1,1.1,0.4,1.1,1.1c0,0.7,0,2,0,3.2l0,1.4c0,2.8-0.1,3.8,1.2,5.7
		C260.8,46.6,261.7,46.6,263,46.6z"/>
	<path class="st0" d="M298.2,41.8l-0.4-0.3c-0.1-0.1-0.2-0.1-0.4,0.2c-2.4,2.8-4,3.4-4.9,3.4h-2.9l7.7-11.8c0.2-0.3,0-0.6-0.3-0.6
		h-5c-2.6,0-3.2,0-4.4-0.2c-0.6-0.1-1.2-0.2-1.9-0.4l-1.8,4.6c-0.1,0.2,0,0.3,0.1,0.3l0.4,0.3c0.1,0.1,0.3,0.1,0.4,0
		c2.6-3.2,3.4-3.5,5.1-3.5h2.3l-7.5,11.7c-0.4,0.6-0.2,0.8,0.1,0.8h3.8c0.7,0,2.3,0,4,0.1c1.6,0,3.2,0.1,3.7,0.3l2.2-4.4
		C298.4,42,298.4,41.9,298.2,41.8z"/>
	<path class="st0" d="M282.7,45h-1.2c-0.4,0-0.5-0.2-0.6-0.8c0-0.4,0-1.5,0-2.8v-3.5c0-2.9,0-4.9,0.1-5.5c0-0.2-0.1-0.4-0.3-0.4
		c-0.2,0-0.5,0.1-0.9,0.2l-4.8,1.6c-0.3,0.1-0.4,0.2-0.4,0.3v0.4c0,0.2,0,0.3,0.4,0.5c1.4,0.5,1.6,1.1,1.6,2l0.1,4.5
		c0,0.9,0,1.9-0.1,2.9c0,0.5-0.3,0.6-0.6,0.6h-1.2c-0.2,0-0.3,0.1-0.3,0.3v0.6c0,0.3,0.1,0.3,0.3,0.3c0.4,0,1.6-0.1,3.5-0.1
		c2.8,0,4.3,0.1,4.6,0.1c0.2,0,0.3-0.1,0.3-0.3v-0.6C283,45.1,283,45,282.7,45z"/>
	<path class="st0" d="M201,45h-1.2c-0.2,0-0.3,0.1-0.3,0.3v0.6c0,0.3,0.1,0.3,0.3,0.3c0.4,0,1.6-0.1,3.5-0.1c2.8,0,4.3,0.1,4.6,0.1
		c0.2,0,0.3-0.1,0.3-0.3v-0.6c0-0.2-0.1-0.3-0.3-0.3h-1.2c-0.4,0-0.5-0.2-0.6-0.8c0-0.4,0-1.5,0-2.8v-3.5c0-2.9,0-4.9,0.1-5.5
		c0-0.2-0.1-0.4-0.3-0.4c-0.2,0-0.5,0.1-0.9,0.2l-4.8,1.6c-0.3,0.1-0.4,0.2-0.4,0.3v0.4c0,0.2,0,0.3,0.4,0.5c1.4,0.5,1.6,1.1,1.6,2
		l0.1,4.5c0,0.9,0,1.9-0.1,2.9C201.6,44.9,201.4,45,201,45z"/>
	<path class="st0" d="M203.4,29.5c1.8,0,2.5-1.2,2.5-2.2c0-0.9-0.8-1.9-2.3-1.9c-1.4,0-2.4,0.9-2.4,2
		C201.1,28.7,202.1,29.5,203.4,29.5z"/>
	<path class="st0" d="M216.8,46.6c2.2,0,4.1-0.7,5.7-2.3c1.3-1.4,2.1-3.2,2.1-5.1c0-2-0.6-3.7-2.2-5.2c-1.5-1.4-3-2-5.2-2
		c-1.5,0-3.2,0.4-4.8,1.7c-2,1.5-2.8,3.9-2.8,5.4c0,2,0.5,3.8,1.7,5.1C212.8,46.1,214.5,46.6,216.8,46.6z M215.1,34.3
		c0.4-0.6,0.9-0.9,1.8-0.9c1.4,0,2.7,1.9,2.7,5.6c0,3.6-0.8,6.2-2.6,6.2c-1.2,0-1.7-0.5-2.1-1.4c-0.6-1.4-0.8-2.6-0.8-4.5
		C214.1,36.7,214.5,35.3,215.1,34.3z"/>
	<path class="st0" d="M249.2,46.3c0.9,0,2.1-0.1,3.1-0.1c2.5,0,3.3,0.1,3.6,0.1c0.2,0,0.3-0.1,0.3-0.3v-0.8c0-0.1,0-0.3-0.3-0.3
		c-0.7,0-2-0.3-2.4-0.7c-0.6-0.7-2.4-3.2-2.6-3.5c-0.3-0.4-2-3.3-2.5-3.8c-0.6-0.8-1.1-1.4-2.1-1.7V35c2.9-0.3,5.9-2.1,5.9-6.2
		c0-1.2-0.7-2.5-1.9-3.5c-1.3-1.2-3.2-2.1-5.7-2.1c-1.3,0-4.2,0.1-6,0.1c-3.5,0-4.5-0.1-4.8-0.1c-0.2,0-0.2,0.1-0.2,0.2v0.9
		c0,0.1,0,0.2,0.2,0.2h1.3c0.5,0,0.9,0.6,0.9,1.6c0,0.9,0,3,0,5.4v3.2c0,3.1,0,6.1-0.1,9.4c0,0.8-0.6,1-1.3,1h-1
		c-0.2,0-0.2,0.1-0.2,0.3v0.7c0,0.2,0,0.3,0.3,0.3c0.4,0,1.1-0.1,4.5-0.1c3.4,0,4.2,0.1,4.3,0.1c0.5,0,0.5-0.1,0.5-0.3v-0.8
		c0-0.2,0-0.3-0.3-0.3h-1.3c-0.5,0-0.7-0.6-0.8-1.3c-0.1-0.4-0.2-4.1-0.2-6V36h1.1c1.6,0,2.9,2.4,4,4.6
		C246.2,41.7,248.2,45.5,249.2,46.3z M241.9,34.9c-0.3,0-0.7,0-1.3,0l0.2-9.5c0.1-0.4,0.2-0.7,0.4-0.9c0.3-0.2,0.7-0.3,1.2-0.3
		c1,0,2.4,0.4,3.6,1.4c0.7,0.7,1.2,2.1,1.2,3.6C247.2,30.8,246.2,34.9,241.9,34.9z"/>
</g>
</svg>
